<?xml version="1.0" encoding="UTF-8"?> <svg xmlns="http://www.w3.org/2000/svg" data-v-fde0c5aa="" viewBox="0 0 300 300" class="iconLeft"><!----><defs data-v-fde0c5aa=""><!----></defs><rect data-v-fde0c5aa="" fill="#F78300" x="0" y="0" width="300px" height="300px" class="logo-background-square"></rect><defs data-v-fde0c5aa=""><!----></defs><g data-v-fde0c5aa="" id="f659808d-94bd-45a8-b6fb-4bcf65fcab76" fill="#ffffff" transform="matrix(4.671131134033203,0,0,4.671131134033203,130.70309468073356,125.03280541491837)"><path d="M4.02 0.04C2.31 0.04 1.33 1.33 1.33 2.91L1.33 3.63L0.28 3.96L0.38 4.47L1.33 4.47L1.33 9.70L0.43 10.00L0.53 10.50L3.46 10.50L3.57 10.00L2.65 9.70L2.65 4.47L4.24 4.47L4.34 3.96L2.65 3.96L2.65 2.63C2.65 1.12 3.26 0.56 4.07 0.56C4.37 0.56 4.70 0.64 4.90 0.78L5.19 1.89L5.70 1.78L5.70 0.63C5.17 0.27 4.73 0.04 4.02 0.04ZM8.64 3.81C6.57 3.81 5.35 5.12 5.35 7.22C5.35 9.32 6.43 10.65 8.64 10.65C10.86 10.65 11.93 9.38 11.93 7.22C11.93 5.07 10.71 3.81 8.64 3.81ZM8.64 4.33C9.81 4.33 10.58 5.39 10.58 7.18C10.58 8.96 9.83 10.14 8.64 10.14C7.45 10.14 6.71 8.95 6.71 7.18C6.71 5.42 7.48 4.33 8.64 4.33ZM16.34 3.81C14.27 3.81 13.05 5.12 13.05 7.22C13.05 9.32 14.13 10.65 16.34 10.65C18.56 10.65 19.63 9.38 19.63 7.22C19.63 5.07 18.41 3.81 16.34 3.81ZM16.34 4.33C17.51 4.33 18.28 5.39 18.28 7.18C18.28 8.96 17.53 10.14 16.34 10.14C15.15 10.14 14.41 8.95 14.41 7.18C14.41 5.42 15.18 4.33 16.34 4.33ZM25.45 9.39C25.06 9.79 24.61 10.00 24.04 10.00C22.86 10.00 22.15 8.82 22.15 7.14C22.15 5.46 22.75 4.47 24.11 4.47C24.60 4.47 25.07 4.65 25.45 4.86ZM25.48 10.00L25.70 10.50L27.58 10.50L27.68 10.00L26.77 9.70L26.77 0.20L26.14 0.04L24.51 0.20L24.61 0.70L25.45 0.70L25.45 4.14C24.99 3.93 24.50 3.81 24.02 3.81C21.97 3.81 20.68 5.21 20.68 7.28C20.68 9.37 21.74 10.65 23.95 10.65C24.64 10.65 25.21 10.25 25.48 10.00Z"></path></g><defs data-v-fde0c5aa=""><!----></defs><g data-v-fde0c5aa="" id="5db38a5b-d07a-486c-9711-8e6d47e46415" stroke="none" fill="#F66000" transform="matrix(0.790114164352417,0,0,0.790114164352417,40,112.82947597022768)"><path d="M98.341 66.867c2.683-6.386 1.653-13.184.115-17.044a2.767 2.767 0 0 0-2.453-1.74c-4.141-.179-10.915 1.098-16.065 5.756a11.665 11.665 0 0 0-5.912-1.611c-.327 0-.648.022-.969.049-.282-1.782-.729-3.369-1.234-4.637a2.767 2.767 0 0 0-2.453-1.74c-5.011-.227-13.863 1.692-19.042 9.141-2.433-5.163-6.709-8.722-10.021-10.494V34.29c0-7.738-4.506-14.795-11.392-18.129V9.686h.143c.764 0 1.384-.619 1.384-1.384V1.384A1.386 1.386 0 0 0 29.057 0H11.069c-.764 0-1.384.619-1.384 1.384v6.918c0 .765.62 1.384 1.384 1.384h.323v6.475C4.506 19.494 0 26.551 0 34.29v57.031a2.769 2.769 0 0 0 2.768 2.768h89.286a2.767 2.767 0 0 0 2.705-2.182l4.803-22.139a2.768 2.768 0 0 0-.551-2.324 2.767 2.767 0 0 0-.67-.577zM70.4 58.937a6.172 6.172 0 0 1 2.907-1.13c.236-.027.475-.045.718-.045.812 0 1.585.16 2.296.444a6.245 6.245 0 0 1 2.272 1.565 6.206 6.206 0 0 1 1.548 3.073c.069.371.11.752.11 1.144 0 .86-.176 1.68-.492 2.426H68.29a6.119 6.119 0 0 1-.226-.63 6.194 6.194 0 0 1-.267-1.796 6.223 6.223 0 0 1 2.603-5.051zm-18.201 5.919C54.235 53.991 63.236 51.898 67.23 51.51c.173.706.346 1.587.458 2.586-3.257 2.094-5.425 5.742-5.425 9.893 0 .832.09 1.643.255 2.426h-4.239l5.761-9.432a1.385 1.385 0 0 0-2.362-1.443l-6.643 10.875H52.31l-.239-.17c.058-.47.101-.933.128-1.389zm-14.66-13.035c.473-.65.935-1.207 1.339-1.656.427.285.912.634 1.428 1.047 3.173 2.539 7.468 7.515 6.149 15.203h-4.241l-1.908-9.743-.058-.294a1.384 1.384 0 1 0-2.716.533l.007.035 1.854 9.469H35.006a17.517 17.517 0 0 1-.234-.729 14.338 14.338 0 0 1-.542-5.593c.097-.971.285-1.893.542-2.762.145-.488.307-.962.487-1.416a18.81 18.81 0 0 1 2.28-4.094zm-23.02 14.693a2.76 2.76 0 0 0-1.453.93 2.77 2.77 0 0 0-.55 2.324l4.075 18.785H5.535V34.29c0-6.09 3.851-11.597 9.58-13.706a2.767 2.767 0 0 0 1.812-2.597V9.686h6.452v8.302c0 1.159.724 2.197 1.812 2.597 5.73 2.108 9.581 7.616 9.581 13.706v12.125a24.776 24.776 0 0 0-3.886 5.7 11.671 11.671 0 0 0-5.288-1.271c-6.485 0-11.761 5.275-11.761 11.76a11.653 11.653 0 0 0 .682 3.909zm14.711-.099h-8.546a6.189 6.189 0 0 1-1.313-3.811 6.234 6.234 0 0 1 6.227-6.227 6.19 6.19 0 0 1 3.448 1.046 19.928 19.928 0 0 0 .184 8.992zm63.683 7.89l-3.091 14.248H22.254l-3.569-16.455-.032-.148h74.771l-.511 2.355zm-.527-7.89h-6.854a11.676 11.676 0 0 0-1.585-8.715c3.399-2.925 7.542-3.775 9.919-4.006.659 2.703 1.336 7.931-1.48 12.721z"></path></g><!----></svg> 